<mxfile host="app.diagrams.net" modified="2023-01-27T02:07:56.681Z" agent="5.0 (Windows NT 10.0; Win64; x64) AppleWebKit/537.36 (KHTML, like Gecko) Chrome/109.0.0.0 Safari/537.36" version="20.8.3" etag="h-nML2GaYWhqpK07ACY9" type="github">
  <diagram id="8vNx4InrF79e0OAAPr4_" name="Page-1">
    <mxGraphModel dx="1434" dy="834" grid="1" gridSize="10" guides="1" tooltips="1" connect="1" arrows="1" fold="1" page="1" pageScale="1" pageWidth="850" pageHeight="1100" math="0" shadow="0">
      <root>
        <mxCell id="0" />
        <mxCell id="1" parent="0" />
        <mxCell id="WZK61ffC5O9m6mDSMPFP-7" value="GYRO" style="rounded=0;whiteSpace=wrap;html=1;" vertex="1" parent="1">
          <mxGeometry x="340" y="425" width="55" height="30" as="geometry" />
        </mxCell>
        <mxCell id="WZK61ffC5O9m6mDSMPFP-8" value="ARDUINO NANO" style="rounded=0;whiteSpace=wrap;html=1;" vertex="1" parent="1">
          <mxGeometry x="407.5" y="420" width="65" height="40" as="geometry" />
        </mxCell>
        <mxCell id="WZK61ffC5O9m6mDSMPFP-9" value="ESP32" style="rounded=0;whiteSpace=wrap;html=1;" vertex="1" parent="1">
          <mxGeometry x="480" y="425" width="50" height="30" as="geometry" />
        </mxCell>
        <mxCell id="WZK61ffC5O9m6mDSMPFP-10" value="BLHELI_S" style="rounded=0;whiteSpace=wrap;html=1;" vertex="1" parent="1">
          <mxGeometry x="410" y="470" width="60" height="30" as="geometry" />
        </mxCell>
        <mxCell id="WZK61ffC5O9m6mDSMPFP-11" value="" style="ellipse;shape=cloud;whiteSpace=wrap;html=1;" vertex="1" parent="1">
          <mxGeometry x="340" y="340" width="120" height="80" as="geometry" />
        </mxCell>
      </root>
    </mxGraphModel>
  </diagram>
</mxfile>
